<svg width="29" height="35" viewBox="0 0 29 35" fill="none" xmlns="http://www.w3.org/2000/svg">
<path d="M3.18833 11.6622L1.70191 10.1904C0.894381 9.39114 0.894381 8.09017 1.70191 7.29042C2.50945 6.49094 3.82351 6.49094 4.63104 7.29042L6.21806 8.86162C7.87358 7.72007 9.7608 6.92993 11.7381 6.55075V4.51172H10.3571C9.97576 4.51172 9.66667 4.2057 9.66667 3.82812V2.05078C9.66667 0.919914 10.5958 0 11.7381 0H17.2619C18.4042 0 19.3333 0.919914 19.3333 2.05078V3.82812C19.3333 4.2057 19.0242 4.51172 18.6429 4.51172H17.2619V6.55075C19.2389 6.92966 21.1264 7.72007 22.7819 8.86162L24.369 7.29042C25.1762 6.49094 26.4903 6.49094 27.2981 7.29042C28.1056 8.0899 28.1056 9.39087 27.2981 10.1904L25.8117 11.6622C27.872 14.203 29 17.3678 29 20.6445C29 28.5601 22.4952 35 14.5 35C6.50477 35 -1.90735e-06 28.5601 -1.90735e-06 20.6445C-1.90735e-06 17.3678 1.12796 14.203 3.18833 11.6622ZM3.65467 8.25706C3.38522 7.99057 2.94747 7.99084 2.67829 8.25706C2.40938 8.52356 2.40938 8.95721 2.67829 9.22371L4.10509 10.636C4.4266 10.3092 4.76374 9.99756 5.11438 9.70249L3.65467 8.25706ZM17.9524 2.05078C17.9524 1.67374 17.6427 1.36719 17.2619 1.36719H11.7381C11.3573 1.36719 11.0476 1.67374 11.0476 2.05078V3.14453H17.9524V2.05078ZM13.119 4.51172V6.35368C14.0342 6.26877 14.9655 6.26877 15.881 6.35368V4.51172H13.119ZM26.3217 8.25706C26.0525 7.99084 25.6145 7.99057 25.3453 8.25706L23.8856 9.70249C24.2363 9.99756 24.5734 10.3092 24.8949 10.636L26.3217 9.22371C26.5906 8.95721 26.5906 8.52356 26.3217 8.25706ZM14.5 33.6328C21.7338 33.6328 27.619 27.8062 27.619 20.6445C27.619 17.4853 26.4606 14.4415 24.3574 12.0732C23.778 11.4208 23.1315 10.8248 22.4359 10.3009C20.6927 8.98766 18.6294 8.12328 16.4689 7.80098C15.8224 7.70512 15.16 7.65625 14.5 7.65625C13.84 7.65625 13.1776 7.70512 12.5313 7.80098C10.3706 8.12328 8.30729 8.98766 6.56384 10.3009C5.86851 10.8248 5.22199 11.4208 4.64264 12.0732C2.53939 14.4415 1.38095 17.4853 1.38095 20.6445C1.38095 27.8062 7.26618 33.6328 14.5 33.6328Z" fill="white"/>
</svg>
